PathFileType	4	(X/Y/Z)	Walk7.trc
DataRate	CameraRate	NumFrames	NumMarkers	Units	OrigDataRate	OrigDataStartFrame	OrigNumFrames
200.000000	200.000000	4	59	mm	200.000000	707	787
Frame#	Times		LCAR		LUA1		LACR1		RTH3		RCAR		RUA1		RACR1		LTB2		RTH1		RFHD		RWRR		RTH2		T10		RPSI		RElbowM		STRN		RBack		LMT5		LLFC		C7		RASI		LTB1		RTH4		LMT1		LPSI		LTB3		LFHD		LTB4		LToe		LLMAL		LTH3		LASI		LElbowM		LTH4		CLAV		RFA1		RElbow		RBHD		LTH1		RWRU		RLFC		LCAL		LFA1		RTB2		LWRR		LTH2		LBHD		LElbow		RTB1		RMT5		RTB3		LWRU		RTB4		RMT1		RToe		RMMAL		RLMAL		RCAL		LMMAL
			X1	Y1	Z1	X2	Y2	Z2	X3	Y3	Z3	X4	Y4	Z4	X5	Y5	Z5	X6	Y6	Z6	X7	Y7	Z7	X8	Y8	Z8	X9	Y9	Z9	X10	Y10	Z10	X11	Y11	Z11	X12	Y12	Z12	X13	Y13	Z13	X14	Y14	Z14	X15	Y15	Z15	X16	Y16	Z16	X17	Y17	Z17	X18	Y18	Z18	X19	Y19	Z19	X20	Y20	Z20	X21	Y21	Z21	X22	Y22	Z22	X23	Y23	Z23	X24	Y24	Z24	X25	Y25	Z25	X26	Y26	Z26	X27	Y27	Z27	X28	Y28	Z28	X29	Y29	Z29	X30	Y30	Z30	X31	Y31	Z31	X32	Y32	Z32	X33	Y33	Z33	X34	Y34	Z34	X35	Y35	Z35	X36	Y36	Z36	X37	Y37	Z37	X38	Y38	Z38	X39	Y39	Z39	X40	Y40	Z40	X41	Y41	Z41	X42	Y42	Z42	X43	Y43	Z43	X44	Y44	Z44	X45	Y45	Z45	X46	Y46	Z46	X47	Y47	Z47	X48	Y48	Z48	X49	Y49	Z49	X50	Y50	Z50	X51	Y51	Z51	X52	Y52	Z52	X53	Y53	Z53	X54	Y54	Z54	X55	Y55	Z55	X56	Y56	Z56	X57	Y57	Z57	X58	Y58	Z58	X59	Y59	Z59

707	3.535	714.04	747.6	-314.24	783.36	1169.1	-263.85	822.62	1352.1	-180.02	821.23	548.19	170.09	915.16	783.84	313.23	825.11	1181.6	234.23	835.83	1359	131.44	1034.5	258.94	-104.3	859.85	710.28	210.77	956	1568.7	17.308	903.22	829.82	258.43	892.12	624.14	164.1	691.95	1127.1	-9.029	710.21	942.17	41.81	775.01	1025.2	174.34	958.48	1219.5	-23.212	708.39	1301.7	94.765	1094.7	25.724	-89.114	1000.7	480.84	-122.65	755.25	1396.4	-15.819	949.76	957.66	140.24	1058.8	343.53	-44.387	838.94	628.67	187.96	1120	30.64	-7.4906	710.21	940.7	-47.424	1046.4	171.37	-50.483	946.51	1571.2	-76.657	1052.1	257.08	-45.795	1191.3	25.814	-30.3	1012.4	59.232	-79.453	961.5	592.51	-158.92	969.06	951.39	-140.42	702.73	1029.2	-200.21	931.96	670.11	-182.44	895.89	1320.8	-26.957	804.17	915.15	287.44	779.25	1061.4	267.04	801.45	1533.5	51.298	904.22	744.43	-214.87	843.79	811.14	295.17	795.15	463.28	150.96	943.42	31.768	-50.658	686.94	923.22	-298.6	640.59	278.3	134.21	727.76	794.3	-273.41	984.75	694.96	-173.83	790.51	1529.5	-91.855	721.25	1051.8	-278.84	726.4	310.46	82.561	478.71	61.581	100.18	587.15	208.25	76.447	671.82	809.39	-316.3	656.62	259.09	76.706	505.95	50.216	29.688	543.35	21.433	64.302	492.06	160.25	17.671	472.18	163.92	97.604	414.38	197.47	57.956	1015.9	63.623	4.598
708	3.54	725.54	747.97	-314.07	790.74	1170.1	-264.33	829.01	1353.2	-180.32	832.36	547.66	170.53	917.32	782.79	312.01	831.49	1182.5	233.52	841.78	1360.2	131.05	1035.8	258.74	-104.57	867.69	710.5	210.13	961.77	1569.9	16.605	906.17	829.05	257.55	902.17	624.96	163.96	698.5	1128	-9.6223	716.59	942.98	41.364	780.76	1026.5	173.33	964.74	1220.8	-23.716	714.3	1302.6	94.326	1094.7	25.736	-89.131	1004.3	480.99	-123.19	761.24	1397.2	-16.448	955.9	958.93	139.82	1061	343.25	-44.951	848.81	628.6	187.94	1120	30.628	-7.4848	716.68	942.11	-48.201	1047.3	171.15	-50.627	952.44	1572.2	-77.361	1053.6	256.83	-46.167	1191.3	25.719	-30.354	1012.5	59.278	-79.482	966.43	593.33	-159.55	975.81	953.12	-140.64	710.33	1029.9	-200.85	938.04	670.97	-183.49	902.19	1322	-27.225	808.1	915.98	286.41	785.03	1062.4	266.21	807.36	1534.6	50.743	911.18	745.86	-215.69	846.13	811.45	294.24	807.09	462.82	152.06	943.41	32.082	-50.721	696.44	923.61	-298.72	650.93	279.49	135.67	738.45	794.98	-273.08	990.48	695.29	-173.96	796.47	1530.3	-92.417	729.26	1052.3	-279.34	737.89	309.97	84.529	482.76	64.05	99.862	597.04	210	78.114	682.77	808.96	-316.05	667.36	259.67	78.544	510.02	52.713	29.939	545.34	21.385	64.455	501.46	162.98	19.301	480.83	167.21	99.148	424.98	203.22	58.469	1015.8	63.737	4.5213
709	3.545	737.12	748.28	-313.84	798.05	1171.1	-264.75	835.38	1354.2	-180.69	843.28	547.36	171.01	919.19	781.85	310.73	837.64	1183.5	232.88	847.82	1361.3	130.52	1037.4	258.48	-104.88	876.36	711.15	209.55	967.79	1571.2	15.917	909.26	828.55	256.51	911.56	625.47	164.17	704.93	1128.7	-9.7263	722.75	943.77	40.864	786.4	1027.7	172.41	971	1222.2	-24.144	720.33	1303.7	93.871	1094.7	25.726	-89.145	1007.8	481.2	-123.74	767.22	1398.2	-16.795	962.21	960.35	139.38	1063	342.86	-45.369	858.41	628.53	187.92	1119.8	30.546	-7.4839	723.26	943.27	-48.915	1048.3	170.89	-50.61	958.23	1573.2	-77.916	1055	256.52	-46.398	1191.3	25.674	-30.408	1012.6	59.318	-79.533	970.75	593.98	-160.31	982.72	954.75	-140.77	718.26	1030.5	-201.26	943.88	672.11	-184.23	908.28	1323.2	-27.492	811.97	916.69	285.41	790.68	1063.3	265.46	813.02	1535.8	50.102	918.01	747.22	-216.48	848.69	812.47	293.41	818.99	462.25	153.1	943.42	32.002	-50.489	705.65	923.43	-299.51	661.57	280.73	137.21	749.7	795.86	-272.76	996.19	695.71	-173.97	802.34	1531.2	-92.897	737.3	1053	-279.83	749.23	309.6	86.303	486.93	67.097	99.939	607.08	211.83	79.83	693.38	808.9	-316.28	678.15	260.35	80.307	514.19	55.214	30.377	547.6	21.449	64.812	511.08	165.51	20.88	489.96	170.68	100.3	435.93	208.66	59.22	1015.7	63.796	4.4697
710	3.55	748.83	748.75	-313.73	805.29	1172.1	-265.02	841.82	1355.4	-180.84	854.32	547.25	171.59	921.25	781.01	309.47	843.77	1184.4	232.23	853.55	1362.3	130.34	1038.9	258.11	-105.17	884.31	711.92	209.02	973.57	1572.6	15.432	909.62	828.2	253.89	921.32	626.73	164.21	711.3	1129.4	-10.285	729.07	944.68	40.419	791.86	1029	171.68	977.46	1223.7	-24.588	726.43	1304.8	93.533	1094.7	25.713	-89.175	1011	481.35	-124.31	773.29	1399.2	-17.4	967.96	961.58	139.22	1065	342.45	-45.603	867.97	628.9	187.91	1119.8	30.486	-7.5056	729.81	944.53	-49.538	1049.2	170.59	-50.534	963.8	1574.4	-78.529	1056.3	256.14	-46.559	1191.3	25.593	-30.416	1012.6	59.283	-79.579	974.82	594.52	-161.02	989.4	956.53	-141.01	725.94	1031	-202.04	949.03	673.46	-184.37	914.42	1324.4	-27.67	816.02	917.4	284.84	796.32	1064.3	264.59	819.11	1537.3	49.553	924.97	748.75	-217.36	851.31	812.31	292.69	830.51	462.01	153.86	943.45	31.994	-50.377	715.18	923.6	-299.74	672.46	282.24	138.65	760.92	796.72	-272.44	1002.5	696.09	-174.42	808.3	1532.1	-93.322	745.34	1053.7	-280.43	761.16	309.39	87.972	491.77	70.52	100.07	616.92	213.5	81.53	704.16	808.9	-316.62	688.95	261.1	82.003	519.07	57.749	30.73	550.44	21.381	64.879	521.17	168.09	22.268	499.45	173.92	101.86	447.6	213.79	59.92	1015.7	63.767	4.3897
